<?xml version="1.0" standalone="no"?>
<!DOCTYPE svg PUBLIC "-//W3C//DTD SVG 20010904//EN"
 "http://www.w3.org/TR/2001/REC-SVG-20010904/DTD/svg10.dtd">
<svg version="1.0" xmlns="http://www.w3.org/2000/svg"
 width="260.000000pt" height="260.000000pt" viewBox="0 0 260.000000 260.000000"
 preserveAspectRatio="xMidYMid meet">
<metadata>
Created by potrace 1.11, written by Peter Selinger 2001-2013
</metadata>
<g transform="translate(0.000000,260.000000) scale(0.100000,-0.100000)"
fill="#000000" stroke="none">
<path d="M551 2104 c-192 -51 -307 -221 -287 -424 17 -169 107 -256 359 -349
224 -83 275 -120 284 -206 13 -112 -61 -192 -186 -199 -141 -7 -256 63 -328
201 -19 35 -33 51 -43 49 -8 -3 -39 -8 -69 -11 l-53 -7 6 -82 c3 -44 9 -108
12 -141 3 -33 7 -80 9 -104 2 -24 6 -46 9 -48 7 -8 101 -7 114 1 5 3 13 22 16
41 8 40 17 43 54 16 31 -21 127 -58 174 -67 229 -41 433 47 521 226 30 60 32
71 32 170 -1 89 -4 112 -24 152 -48 99 -124 152 -358 248 -236 97 -273 128
-273 231 0 130 130 196 290 148 64 -19 138 -96 175 -182 l30 -67 35 5 c19 3
50 8 68 11 l34 7 -7 76 c-7 82 -10 107 -21 191 -3 30 -8 69 -9 85 -2 17 -3 34
-4 38 0 4 -27 7 -58 5 l-58 -3 -9 -42 -8 -41 -67 34 c-36 19 -77 37 -91 41
-55 13 -216 11 -269 -3z"/>
<path d="M1349 2090 c-1 -3 -2 -29 -3 -57 l-1 -53 35 -6 c81 -14 109 -25 116
-46 5 -16 8 -628 5 -920 -1 -63 -23 -84 -95 -93 -31 -4 -57 -10 -57 -14 -1 -3
-2 -30 -3 -58 l-2 -53 317 0 317 0 1 54 0 55 -57 6 c-93 11 -130 23 -137 46
-4 12 -7 82 -7 158 1 188 1 193 11 187 22 -14 238 -8 300 9 215 56 328 209
314 426 -12 192 -126 309 -343 350 -65 12 -709 21 -711 9z m539 -131 c43 -2
78 -10 114 -28 44 -22 57 -36 82 -83 49 -97 37 -243 -30 -339 -39 -56 -92 -80
-190 -87 l-84 -5 0 271 c0 249 1 271 18 275 9 2 20 2 23 1 3 -2 33 -4 67 -5z"/>
<path d="M180 580 l0 -90 1115 0 1115 0 0 90 0 90 -1115 0 -1115 0 0 -90z"/>
</g>
</svg>
